<svg id="logo" xmlns="http://www.w3.org/2000/svg" xmlns:xlink="http://www.w3.org/1999/xlink" width="287" height="42" viewBox="0 0 287 42">
  <defs>
    <clipPath id="clip-path">
      <rect id="crop" width="287" height="42" fill="#fff" />
    </clipPath>
  </defs>
  <g id="logo-2" data-name="logo" transform="translate(0 0)" clip-path="url(#clip-path)">
    <g id="Group_1" data-name="Group 1" style="isolation: isolate">
      <path id="Path_1" data-name="Path 1" d="M0,32.971H1.362A2.1,2.1,0,0,0,2.884,31.44v-20.4A2.1,2.1,0,0,0,1.362,9.512H0V.806H35.645V14.833H26.593l-1.362-4.6H18.9v5.8h8.731v9.351H18.9v6.933h6.488l1.2-5.643h9.532V41.436H.08V32.971Z" fill="#fff" />
      <path id="Path_2" data-name="Path 2" d="M41.172,32.971h1.362a2.1,2.1,0,0,0,1.522-1.532v-20.4a2.1,2.1,0,0,0-1.522-1.532H41.172V.806H59.194l9.932,18.138h.16V9.512H66.323V.806H83.3V9.512H82.183a2.1,2.1,0,0,0-1.522,1.532V41.436H66.724L55.67,21.2h-.16v11.77h3.2v8.384H41.332V32.971Z" fill="#fff" />
      <path id="Path_3" data-name="Path 3" d="M88.191,32.971h1.362a2.1,2.1,0,0,0,1.522-1.532v-20.4a2.1,2.1,0,0,0-1.522-1.532H88.191V.806H108.3c16.18,0,22.668,6.53,22.668,19.992s-6.728,20.637-23.149,20.637H88.191Zm19.625-.4c4.486,0,6.809-3.547,6.809-11.125s-2.163-11.286-6.809-11.286h-.721V32.649h.721Z" fill="#fff" />
      <path id="Path_4" data-name="Path 4" d="M135.21,32.971h1.362a2.1,2.1,0,0,0,1.522-1.532v-20.4a2.1,2.1,0,0,0-1.522-1.532H135.21V.806H158.2V9.512h-4.165V32.326h5.847l1.2-6.691h9.532v15.8H135.13l.08-8.464Z" fill="#fff" />
      <path id="Path_5" data-name="Path 5" d="M175.58,32.971h1.362a2.1,2.1,0,0,0,1.522-1.532v-20.4a2.1,2.1,0,0,0-1.522-1.532H175.58V.806h35.565V14.833h-9.051l-1.362-4.6H194.4v5.8h8.731v9.351H194.4v6.933h6.488l1.2-5.643h9.532V41.436H175.58V32.971Z" fill="#fff" />
      <path id="Path_6" data-name="Path 6" d="M226.364,41.355h-9.612V28.215h10.173l1.362,4.514a16.954,16.954,0,0,0,2.163.161c2.083,0,3.845-.645,3.845-2.58,0-1.774-1.442-2.418-5.046-3.305-6.008-1.532-12.5-3.466-12.5-13.382C216.752,3.547,223.641,0,232.291,0a36.227,36.227,0,0,1,8.09.726h7.93V12.9H238.3l-1.362-4.273a11.772,11.772,0,0,0-1.762-.081c-2.563,0-4.005.806-4.005,2.741s1.762,2.338,3.6,2.821c11.214,3.144,14.738,5.8,14.738,13.866,0,9.109-4.726,14.027-16.1,14.027A27.279,27.279,0,0,1,226.364,41.355Z" fill="#fff" />
      <path id="Path_7" data-name="Path 7" d="M263.931,41.355h-9.612V28.215h10.173l1.362,4.514a16.955,16.955,0,0,0,2.163.161c2.083,0,3.845-.645,3.845-2.58,0-1.774-1.442-2.418-5.046-3.305-6.008-1.532-12.5-3.466-12.5-13.382C254.319,3.547,261.208,0,269.858,0a36.227,36.227,0,0,1,8.09.726h7.93V12.9H275.786l-1.362-4.273a11.772,11.772,0,0,0-1.762-.081c-2.563,0-4.005.806-4.005,2.741s1.762,2.338,3.6,2.821C283.476,17.251,287,19.912,287,27.973,287,37.083,282.274,42,270.9,42A27.34,27.34,0,0,1,263.931,41.355Z" fill="#fff" />
    </g>
  </g>
  <path id="Color_Overlay" data-name="Color Overlay" d="M752.953,71a27.911,27.911,0,0,1-5.021-.645H738.32V57.215h10.173l1.362,4.514a16.885,16.885,0,0,0,2.163.161c2.083,0,3.845-.644,3.845-2.579,0-1.774-1.442-2.418-5.046-3.306-6.008-1.531-12.5-3.466-12.5-13.381C738.32,32.547,745.208,29,753.859,29a36.221,36.221,0,0,1,8.09.725h7.93V41.9H759.786l-1.362-4.272a11.846,11.846,0,0,0-1.762-.08c-2.563,0-4.005.806-4.005,2.741s1.762,2.338,3.6,2.821C767.476,46.251,771,48.911,771,56.973,771,66.083,766.274,71,754.9,71Zm-37.546,0a26.921,26.921,0,0,1-5.043-.645h-9.612V57.215h10.173l1.363,4.514a16.875,16.875,0,0,0,2.163.161c2.083,0,3.845-.644,3.845-2.579,0-1.774-1.442-2.418-5.046-3.306-6.008-1.531-12.5-3.466-12.5-13.381,0-10.077,6.889-13.624,15.54-13.624a36.221,36.221,0,0,1,8.09.725h7.93V41.9H722.3l-1.362-4.272a11.846,11.846,0,0,0-1.762-.08c-2.563,0-4.005.806-4.005,2.741s1.762,2.338,3.6,2.821c11.214,3.144,14.738,5.8,14.738,13.865,0,9.11-4.726,14.027-16.1,14.027Zm-55.826-.564V61.971h1.362a2.1,2.1,0,0,0,1.522-1.532v-20.4a2.1,2.1,0,0,0-1.522-1.532H659.58V29.806h35.564V43.833h-9.051l-1.362-4.595H678.4v5.8h8.731v9.351H678.4v6.933h6.488l1.2-5.643h9.532V70.436Zm-40.451,0,.08-8.464h1.362a2.1,2.1,0,0,0,1.522-1.532v-20.4a2.1,2.1,0,0,0-1.522-1.532H619.21V29.806H642.2v8.706h-4.165V61.326h5.847l1.2-6.691h9.532v15.8Zm-46.939,0V61.971h1.362a2.1,2.1,0,0,0,1.522-1.532v-20.4a2.1,2.1,0,0,0-1.522-1.532h-1.362V29.806H592.3c16.18,0,22.668,6.53,22.668,19.992s-6.728,20.638-23.149,20.638Zm18.9-8.788h.721v-.08c4.486,0,6.808-3.547,6.808-11.125s-2.163-11.286-6.808-11.286h-.721Zm-40.371,8.788L539.67,50.2h-.16v11.77h3.2v8.384H525.332V61.971h1.2a2.1,2.1,0,0,0,1.522-1.532v-20.4a2.1,2.1,0,0,0-1.522-1.532h-1.362V29.806h18.022l9.932,18.138h.16V38.512h-2.964V29.806h16.982v8.706h-1.121a2.1,2.1,0,0,0-1.522,1.532V70.436Zm-66.643,0V61.971h1.282a2.1,2.1,0,0,0,1.522-1.532v-20.4a2.1,2.1,0,0,0-1.522-1.532H484V29.806h35.645V43.833h-9.051l-1.362-4.595H502.9v5.8h8.731v9.351H502.9v6.933h6.488l1.2-5.643h9.532V70.436Zm41.091-8.464h0Zm-41.171,0h.08Z" transform="translate(-484 -29)" fill="#fff" />
</svg>